<svg width="18" height="17" viewBox="0 0 18 17" fill="none" xmlns="http://www.w3.org/2000/svg">
<path d="M14.9749 7.87235L15.3677 8.23822L14.9749 8.6041L10.8943 12.4048C10.9014 12.4102 10.917 12.4181 10.9418 12.4181C10.9697 12.4181 10.9861 12.408 10.9916 12.4029L15.4629 8.23822L10.9916 4.07354C10.9856 4.06795 10.9795 4.0643 10.9725 4.06168C10.965 4.05888 10.9547 4.05664 10.9418 4.05664C10.9288 4.05664 10.9185 4.05888 10.911 4.06168C10.9049 4.06398 10.8995 4.06706 10.8942 4.07153L14.9749 7.87235Z" fill="black" stroke="black"/>
<path d="M15.2922 8.22266H2.88866C2.86916 8.22266 2.85346 8.22941 2.84316 8.2375C2.85346 8.24559 2.86916 8.25233 2.88866 8.25233H15.2922C15.3116 8.25233 15.3274 8.24559 15.3377 8.2375C15.3274 8.22941 15.3116 8.22266 15.2922 8.22266ZM15.3467 8.22804C15.3469 8.22756 15.3466 8.22804 15.3467 8.22804ZM15.3463 8.24624C15.3463 8.24625 15.3465 8.24672 15.3463 8.24624Z" fill="black" stroke="black"/>
</svg>
