<svg width="18" height="17" viewBox="0 0 18 17" fill="none" xmlns="http://www.w3.org/2000/svg">
<path d="M3.02537 7.87223L2.63255 8.2381L3.02537 8.60398L7.10596 12.4047C7.09887 12.4101 7.08323 12.418 7.05847 12.418C7.03049 12.418 7.01416 12.4079 7.00865 12.4028L2.53733 8.2381L7.00865 4.07342C7.01465 4.06783 7.02075 4.06418 7.02774 4.06156C7.03522 4.05876 7.04549 4.05652 7.05847 4.05652C7.07146 4.05652 7.08173 4.05876 7.08921 4.06156C7.09532 4.06386 7.10076 4.06694 7.10603 4.07141L3.02537 7.87223Z" fill="black" stroke="black"/>
<path d="M2.70777 8.22228L15.1113 8.22228C15.1308 8.22228 15.1465 8.22903 15.1568 8.23712C15.1465 8.24521 15.1308 8.25195 15.1113 8.25195L2.70777 8.25195C2.68834 8.25195 2.67256 8.24521 2.66229 8.23712C2.67256 8.22903 2.68834 8.22228 2.70777 8.22228ZM15.1658 8.24657C15.1658 8.24657 15.1656 8.24634 15.1654 8.24586L15.1658 8.24657ZM15.1654 8.22837C15.1656 8.22789 15.1658 8.22766 15.1658 8.22766L15.1654 8.22837ZM2.65328 8.22766C2.65331 8.22766 2.65346 8.2279 2.65366 8.22838L2.65328 8.22766ZM2.65366 8.24586C2.65345 8.24634 2.6533 8.24658 2.65328 8.24657L2.65366 8.24586Z" fill="black" stroke="black"/>
</svg>
