<?xml version="1.0" encoding="UTF-8"?>
<svg xmlns="http://www.w3.org/2000/svg" id="Warstwa_1" data-name="Warstwa 1" viewBox="0 0 1284.25 221.53">
  <path d="M70.09,168.68v-73H52.38v-8l17.95-.94,1.41-32.82h9V86.73h32.82v9H80.71v73.93c0,14.4,3.55,24.08,19.13,24.08,4.25,0,10.15-1.65,14.17-3.54l2.83,8.5c-6.61,2.36-13.69,4.25-18.42,4.25-22,0-28.33-13.93-28.33-34.24" transform="translate(-52.38 -30.3)"></path>
  <path d="M124.4,143.64c0-38,23.61-59.74,50.76-59.74,27.39,0,51,21.72,51,59.74,0,37.56-23.62,59.28-51,59.28-27.15,0-50.76-21.72-50.76-59.28m90.9,0c0-30-17.23-50.54-40.14-50.54s-39.9,20.55-39.9,50.54c0,29.77,17,50.07,39.9,50.07s40.14-20.3,40.14-50.07" transform="translate(-52.38 -30.3)"></path>
  <path d="M255.21,168.68v-73H237.5v-8l17.94-.94,1.42-32.82h9V86.73h32.82v9H265.83v73.93c0,14.4,3.55,24.08,19.13,24.08,4.25,0,10.15-1.65,14.17-3.54l2.83,8.5c-6.61,2.36-13.69,4.25-18.42,4.25-22,0-28.33-13.93-28.33-34.24" transform="translate(-52.38 -30.3)"></path>
  <path d="M308.34,171.75c0-25,22.66-37.08,73.19-42.75.24-17.24-4.48-35.9-26.91-35.9-15.12,0-28.34,7.56-36.13,13.23l-4.72-7.79c8-5.67,23.85-14.64,42.26-14.64,26.68,0,35.89,19.36,35.89,43.68v72.51h-9L382,185.45h-.71c-11.57,9.21-25.27,17.47-40.14,17.47-18,0-32.82-9.68-32.82-31.17m73.19,3.78V137c-46.75,5.43-62.57,16.3-62.57,34.25,0,16.29,11.1,22.67,24.09,22.67s24.32-6.38,38.48-18.42" transform="translate(-52.38 -30.3)"></path>
  <path d="M427.58,185V30.3H438V186.39c0,5,2.13,7.32,5,7.32a18.32,18.32,0,0,0,4.25-.47l1.89,8.5a22,22,0,0,1-7.55,1.18c-9.21,0-13.93-5.67-13.93-17.94" transform="translate(-52.38 -30.3)"></path>
  <path d="M474.33,84.13h22.43L498.65,100h.94c9.68-10.39,21-18.65,35.42-18.65,17,0,26.68,7.79,32.11,20.78,11.1-11.81,22.67-20.78,37.31-20.78,24.56,0,35.89,16.76,35.89,46.05v72.74H612.93v-69.2c0-19.13-5.67-26.21-17.71-26.21-7.32,0-15.35,4.72-24.32,14.4v81H543.75v-69.2c0-19.13-5.67-26.21-18-26.21-7.08,0-15.35,4.72-24.32,14.4v81H474.33Z" transform="translate(-52.38 -30.3)"></path>
  <path d="M661.09,142.23c0-38.74,26.21-60.93,55-60.93,29,0,55.25,22.19,55.25,60.93,0,38.5-26.21,60.69-55.25,60.69-28.8,0-55-22.19-55-60.69m82.4,0c0-23.39-10.39-38.74-27.39-38.74S689,118.84,689,142.23c0,23.15,10.15,38.5,27.15,38.5s27.39-15.35,27.39-38.5" transform="translate(-52.38 -30.3)"></path>
  <path d="M793.54,84.13H816l1.89,15.59h.95C829.2,89.56,841,81.3,856.82,81.3c24.8,0,35.66,16.76,35.66,46.05v72.74H865.32v-69.2c0-19.13-5.43-26.21-18.18-26.21-10.15,0-16.76,4.95-26.44,14.4v81H793.54Z" transform="translate(-52.38 -30.3)"></path>
  <path d="M913.49,142.23c0-37.79,26.21-60.93,53.36-60.93,31.41,0,47.94,22.67,47.94,55a63.94,63.94,0,0,1-1.18,13.23H939.93c2.37,20.55,15.59,32.36,34.24,32.36,9.92,0,18.42-3.07,26.92-8.5l9.21,17c-11.1,7.32-25,12.51-39.67,12.51-32.11,0-57.14-22.43-57.14-60.69m77.68-11.11c0-17.94-7.79-28.81-23.61-28.81-13.69,0-25.5,10.16-27.86,28.81Z" transform="translate(-52.38 -30.3)"></path>
  <path d="M1028.71,245.42l5-21.24a28.8,28.8,0,0,0,8.27,1.65c12.27,0,19.36-8.27,23.13-19.84l2.13-7.32L1021.63,84.13h27.62L1069.33,141c3.3,10.16,6.61,21.74,10.15,32.61h.94c2.84-10.64,5.91-22.21,8.74-32.61l17.47-56.91h26.21l-42,121.15c-9.68,26.21-21.72,42.51-47,42.51a45,45,0,0,1-15.12-2.37" transform="translate(-52.38 -30.3)"></path>
  <path d="M1145.52,203.38a13.65,13.65,0,0,1-10-4.14,14.22,14.22,0,0,1-4.14-10.51q0-6.85,4.14-11a13.67,13.67,0,0,1,10-4.13,13.44,13.44,0,0,1,9.81,4.13q4.13,4.14,4.13,11a14.25,14.25,0,0,1-4.13,10.51A13.41,13.41,0,0,1,1145.52,203.38Z" transform="translate(-52.38 -30.3)"></path>
  <path d="M1189.07,251.82V87.1h9l.94,14.18h.71a115.41,115.41,0,0,1,18.08-11.82,43.15,43.15,0,0,1,20.44-5.2q22.68,0,34,15.71t11.34,42.19a77.11,77.11,0,0,1-4,25.77,58.31,58.31,0,0,1-11,19.26,47.39,47.39,0,0,1-16.07,12.05,45.46,45.46,0,0,1-19,4.14,41.58,41.58,0,0,1-16.54-3.67,88.48,88.48,0,0,1-17.48-10.27v62.38Zm44-57.65a33.89,33.89,0,0,0,15.83-3.79,36.61,36.61,0,0,0,12.53-10.63,52.74,52.74,0,0,0,8.15-16.43,71.48,71.48,0,0,0,3-21.16,89.3,89.3,0,0,0-2-19.38,46.76,46.76,0,0,0-6.26-15.48,30.05,30.05,0,0,0-11.11-10.16q-6.85-3.66-16.54-3.66A37.54,37.54,0,0,0,1219,98.32a108.71,108.71,0,0,0-19.49,13.83v67.36q9.91,8,18.43,11.35A42.55,42.55,0,0,0,1233,194.17Z" transform="translate(-52.38 -30.3)"></path>
  <path d="M1329.06,203.38q-13.95,0-13.94-18V30.62h10.4V186.84q0,3.78,1.42,5.55a4.36,4.36,0,0,0,3.54,1.78H1332a12.64,12.64,0,0,0,2.72-.48l1.89,8.51c-1.1.31-2.2.59-3.3.83A21.56,21.56,0,0,1,1329.06,203.38Z" transform="translate(-52.38 -30.3)"></path>
</svg>
