<?xml version="1.0" encoding="UTF-8"?>
<svg xmlns="http://www.w3.org/2000/svg" id="Layer_1" data-name="Layer 1" viewBox="0 0 149.85 174.78">
  <defs>
    <style>.cls-1{fill:#fff;}.cls-2{fill:#4d4d4f;}</style>
  </defs>
  <path d="M485.65,286.76c2.71.87,6.12-2,7.58-3.88a12.26,12.26,0,0,0,2.61-8.13,4.36,4.36,0,0,0-1.85-3.41,4.84,4.84,0,0,0-2.24-.64,8.77,8.77,0,0,0-7.79,3.74c2.36-3.55,4.63-7,5.39-11.26a17.23,17.23,0,0,0,.32-3.36c-.16-14.15-8.4-28.82-21.87-34.84-7.17-3.21-16.07-4.31-23.48-1.24,1.19-.5-5.33-9.93-6.16-10.73a17.06,17.06,0,0,0-10.66-4.94c-5.13-.33-10.73,2.39-12.74,7.18a10.15,10.15,0,0,0-.39,6.46,11.52,11.52,0,0,0-4.59-2.18,6.47,6.47,0,0,0-4.92.91c-2.41,1.72-2.34,5.93-.92,8.29-2.52-4.2-7.19-6.73-11.91-8.32-7-2.36-14.88-2.69-21,1.84a21.68,21.68,0,0,0-8.09,14.1,33.25,33.25,0,0,0,1.38,15.52c1.23,3.59,3.24,8,6.5,10.28a33.18,33.18,0,0,0-9.64-.74,12.45,12.45,0,0,0-4.23.94,9.6,9.6,0,0,0-5.23,9.86,13.4,13.4,0,0,0,6.7,9.44,9.58,9.58,0,0,0,6.31,1.63c-12.54,3.3-17.08,16.64-18.27,27.86-.71,6.65-.68,13.5,1.37,19.88,3.91,12.15,18.74,23.05,32.15,18,5-1.89,9.16-5.4,13.11-8.86-1.31,1.14,1.37,5.14,2.12,6.05,3,3.69,8.41,7.55,13.38,4.71a8.17,8.17,0,0,0,3.25-3.7,12.89,12.89,0,0,0,1.17-7.81c-.53-2.44-2.2-4.41-3.53-6.48,5.86,9.13,14,17.54,24.7,21.16,13.3,4.51,29.06,0,37.28-11.18a37.33,37.33,0,0,0,5.77-11.1,5.6,5.6,0,0,0,4.59.08,8.84,8.84,0,0,0,5.3-7.15,11,11,0,0,0-3-8.51c-.21-.23-.5-.36-.73-.57a15.79,15.79,0,0,0,8.89-20.93c-1.17-3.17-3.1-6.84-6.64-8" transform="translate(-346.02 -208.04)"></path>
  <path class="cls-1" d="M402.23,257.6c.06,0,.14-.07.21-.07a.6.6,0,0,1-.21.07m4.55-6.73a3.89,3.89,0,0,0-2.35-3.3c-1.77-1-3.53-.43-5.37-.21.15,3.37.15,7.51.37,10.17a4.14,4.14,0,0,0,2.8.07c-.08.07,2.79-.58,3.74-2a7,7,0,0,0,.81-4.73m-.88,13.75a11.36,11.36,0,0,0-6.77-.28c-.07,7.65-.51,12.24.45,19.05,2.57-.29,5.07-.14,6.39-1.58a25,25,0,0,0,1.84-8.95c0-2.29.22-6.67-1.91-8.24m6,0c1,1.93.81,3.86.81,6a51.46,51.46,0,0,1-.36,10.61c-.6,3.37-2.29,5.95-5.81,7-1.77.43-3.68.65-5.45,1.07a14.27,14.27,0,0,1-3,.51,35,35,0,0,0-3.83,0c-.88-1.08-.59-3.3-.66-4.59l-.15-6.08c0-4,0-8,.08-12.11.07-7.81-.15-15.76.29-23.57,1.46-.22,2.86-.65,4.27-.86a24.41,24.41,0,0,1,4.7-.14,20.9,20.9,0,0,1,4.71.92,7,7,0,0,1,3.23,2.87c2.87,4.3,1.17,11.32-2.5,14.61.15.08,1,.79,2.27,1.65a8.84,8.84,0,0,1,1.4,2.08" transform="translate(-346.02 -208.04)"></path>
  <path class="cls-1" d="M435.43,272.2a5,5,0,0,0,2.48.05c-.15-1.14-.34-2.23-.53-3.37a27,27,0,0,0-.59-3.37c-.29,1.43-.53,2.85-.83,4.27a13.14,13.14,0,0,0-.53,2.42m2.77-12.66.24,1.47.44,3.17a57.83,57.83,0,0,0,1.22,5.88,52.7,52.7,0,0,1,1,6.17c.15.95.2,1.9.39,2.84a13,13,0,0,0,.34,1.33c.15.38.39.62.15,1a4.91,4.91,0,0,1-2.58,0c.15-.24-.39-1.09-.49-1.38a14.1,14.1,0,0,1-.34-1.51c-.14-1.14-.14-2.33-.29-3.47a20.38,20.38,0,0,1-3.35-.14c-.15,1.81-.79,3.46-1,5.22-.1.57,0,1.33-.73,1.33a5.53,5.53,0,0,1-2.14-.05,10.31,10.31,0,0,1,.34-2.75c.15-.95.2-1.9.34-2.89.29-2,1-4,1.41-5.93s.88-4.08,1.41-6,.58-3.89.93-5.79a4.67,4.67,0,0,1,1.17.1c.44.09,1-.14,1.31.14s.1.9.24,1.28m-13.76,13s-.05.05-.05.09,0,0,.05-.09m-.1.19s0,0,.05-.1-.05.05-.05.1m0,.05,0-.05a0,0,0,0,1,0,.05m-.1.18s.05-.09.1-.18a.24.24,0,0,0-.1.18m.15-.23a.55.55,0,0,1,.1-.19,9.58,9.58,0,0,0,.48-3.7,16.33,16.33,0,0,0-.44-4.6,3.27,3.27,0,0,0-2.52-2.7,15.11,15.11,0,0,0-4.14-.05c.53,4.32-.1,9.15.58,13.33,2.73.13,4.87-.19,5.79-1.86-.19.38-.39.86.15-.23m12.12,15.46c-2.24,3.07-6.14,2.13-7.69,2a3.53,3.53,0,0,1-2.83-1.8,17,17,0,0,1-.53-2.94,14.16,14.16,0,0,0-1-3.84c-.39-.95-.88-2.33-2-2.66a27.29,27.29,0,0,0-4.28-.15c-.05,1.86.09,3.71,0,5.56,0,.94.34,4.55,0,5.26-.58,0-2.68.23-3.16.14-.29-.29-.54-25.22-.49-26,.1-1-.49-4.65,0-5.26s3-.29,3.74-.29a35.09,35.09,0,0,1,3.8.24,8.82,8.82,0,0,1,3,1c3.5,2.09,3.06,8.49,3,9.86,0,2.28.53,5.69-1.8,7.07-.2.09-.54.24-.54.52s.44.28.59.38a4.27,4.27,0,0,1,1.41,1.75,11,11,0,0,1,.92,2.57c.19,1.14.39,2.08.48,2.94.06.09.3,1.42.44,1.75.15.57,2.92,1.09,4.23-.33.5-.52.54-1.9.74-2.61,1,.1,2.09-.14,3.16-.14v.52a6.24,6.24,0,0,1-1.26,4.46" transform="translate(-346.02 -208.04)"></path>
  <path class="cls-1" d="M447.61,262.91c-.05,1.32,0,2.56,0,3.84-.05,2.6-.34,5.17-.34,7.77s.29,5.27.19,7.92a23.48,23.48,0,0,0,0,3.13,12.82,12.82,0,0,1-.1,3.56,7.54,7.54,0,0,1-3.21.61c-.92-.71-.59-2.51-.49-3.51.3-3,.3-6,.34-9,.1-4.64-.14-9.24-.34-13.89,0-.76,0-1.47.05-2.23,0-.52-.34-2.18.25-2.37a6.35,6.35,0,0,1,2.08-.24c.73,0,1.86-.13,1.86.77-.05,1.22-.2,2.41-.25,3.6" transform="translate(-346.02 -208.04)"></path>
  <path class="cls-1" d="M463.33,263.15a10.39,10.39,0,0,1,.25-4.23,12.29,12.29,0,0,1,3.21.05c.48,2.51,0,5.17,0,7.73s-.15,5-.1,7.54.05,5.21.1,7.82c.14,2.37.54,5-.1,7.4-.34.09-3.5.33-3.7,0s-6.23-17.21-6.71-17.3c-.05-.05.19.05.15-.05-.35-.47-.3-1.23-.69-1.71-.14,1.57-.38,15.89-.38,16.65a12.22,12.22,0,0,1,.24,2.65,7.07,7.07,0,0,1-2.87-.14c-.35-.24-.24-.81-.24-1.18-.15-1.76-.64-21.62-.69-24.76,0-.66,0-1.28,0-1.94s-.2-1.51.2-1.9a3.89,3.89,0,0,1,1.75-.71c.34-.09.58.05.92,0s.78-.23,1.12,0c.44.67,5.79,16.36,6,17.17s.87,1.65.92,2.55c.05,0,.2-.28.2-.18s-.15-.24,0-.19c-.19-3.42.39-13.66.29-15.31" transform="translate(-346.02 -208.04)"></path>
  <path class="cls-1" d="M451.05,313.71a7.61,7.61,0,0,0-3.07-4c-1.37-1.09-3.11-2.12-2.55-4.06a1.22,1.22,0,0,1,1.18-.95,1,1,0,0,0,.39-.52,1.83,1.83,0,0,0,0-.84,5.16,5.16,0,0,0-.29-1c0-.08-.24-.11-.44-.14a4.58,4.58,0,0,0-2.5,1.12,4.28,4.28,0,0,0-1.33,3,4,4,0,0,0,.84,2.69c1.4,1.67,5.49,3.3,5,6.06s-2.83,1-4,.07c-.56-.44-2.1,1.12-2.1,1.33s.81,1.09,1.09,1.26a6.44,6.44,0,0,0,1.64.89,5.65,5.65,0,0,0,4.06-.17,3.46,3.46,0,0,0,1.43-1.27,4.76,4.76,0,0,0,.66-3.44" transform="translate(-346.02 -208.04)"></path>
  <path class="cls-1" d="M458.7,309.93c-1.85-2.1-4.16-4.4-5.31-7.6-1-2.7.12-4,1.5-3.83a6.55,6.55,0,0,1,2.15,2.14c.4.61,2.14-1.1,2.65-2h0a.24.24,0,0,0,.07-.13c-1.23-2.23-4.31-6.17-8.11-3.3a6.26,6.26,0,0,0-1.78,3.15,10.15,10.15,0,0,0-.21,4,11.83,11.83,0,0,0,.88,3.1,17.93,17.93,0,0,0,1.37,1.95,25,25,0,0,0,3.65,4.2,11.63,11.63,0,0,1,2.82,3.32c.87,1.55,1.2,4.11-.08,5.39-1,.94-2,.64-2.84-.38a1,1,0,0,0-.55-.07,1.45,1.45,0,0,0-.67.35,2.45,2.45,0,0,0-1,1.68,4.91,4.91,0,0,0,.07.86,4.74,4.74,0,0,0,1.13,1.39,5.65,5.65,0,0,0,4.72.37c1.29-.7,2.61-3,2.95-4.74.69-3.88-1.09-7.25-3.41-9.83" transform="translate(-346.02 -208.04)"></path>
  <path class="cls-1" d="M374.27,299.17a30.77,30.77,0,0,0,4.08.26,33,33,0,0,0,6-.52c0-.35.09-.78.09-1.13a10,10,0,0,0-.44-2.85c-.53-2.33-1.6-5.19-3.9-5.19-4.8,0-5.51,6.23-5.86,9.43M391,314.64c0,6.57-6.3,10.64-12.07,10.64-10.55,0-11.44-15.13-11.44-22.66,0-7.86,2.84-19.1,12.86-19.1,8.17,0,8.79,7.26,9.23,12.19a53.72,53.72,0,0,1,.45,6.57v2.16c-.09.6-2.49.69-4.26.69h-2c-2.66.09-5.41.78-8,.78h-.71c-.53,0-1,.09-1,.43,0,1.39-.88,12.37,5.06,12.37,4.52,0,4.61-4.33,5.23-7.09h.8c1.78,0,5.77,1.38,5.77,3" transform="translate(-346.02 -208.04)"></path>
  <path class="cls-1" d="M417.44,309.59c0,1.41.05,2.79.14,4.16.05,1.09.05,2.22.2,3.31s1.45,3.27,2.86,2.89c2.58-.76,2.48-5.21,2.58-7.1a16.87,16.87,0,0,0-.34-6c-.49-1.8-2.43-3.36-4.23-1.89-1.21,1.09-1.31,3.17-1.21,4.64m-.88,14.24a5.9,5.9,0,0,1-1.26.09c-.48-.05-.87-.24-1.26-.28-.63-5.16-.29-10.27-.15-15.43.1-2.65.1-5.34.2-7.95,0-1.37.05-2.69.14-4a9.11,9.11,0,0,1,.39-3.22,8.06,8.06,0,0,1,3-.18c.44.47.24,1.42.2,2l-.2,2.37c-.1,1.51-.24,3.07-.19,4.59.29,0,.39-.24.58-.33a3.3,3.3,0,0,1,1.17-.29,4,4,0,0,1,1.94.24,6.56,6.56,0,0,1,3.16,2.27c1.84,2.37,1.89,5.63,1.65,8.47-.05,1.61-.25,3.22-.44,4.83a8.79,8.79,0,0,1-1.17,3.92,6.11,6.11,0,0,1-3.1,2.51,3.49,3.49,0,0,1-3.74-1c.09.94.14,1.32-.93,1.42" transform="translate(-346.02 -208.04)"></path>
  <path class="cls-1" d="M431.46,310c.09,1.42.09,3.17,1.06,4.35a2.25,2.25,0,0,0,2.58.47,4.11,4.11,0,0,0,2-2.55,7.26,7.26,0,0,0-.05-5.25,3.87,3.87,0,0,0-3.11-.95c-2.18.24-2.62,2.18-2.52,3.93m5.48,7.62c-1.16.61-2.42,1.37-3.83,1.13a5.62,5.62,0,0,1-3.16-2c-1.6-2.08-1.7-5.49-1.5-7.95.14-1.75.67-4.26,2.28-5.35a6.76,6.76,0,0,1,6.5-.14c.34-1.56.15-7.07-2.62-5.79-.53.33-.73,1.56-1.11,2.12s-.59.38-1.12.38-1.41.29-1.89-.09c-.69-1.94,1-4.64,2.76-5.44,2.19-1.09,4.62-.85,6.12,1.13,1.65,2.13,1.31,6.55,1.17,9.06l-.39,8.57a43.11,43.11,0,0,1-.39,5.58,11.76,11.76,0,0,1-2.53,0c-.14-.33-.09-.9-.29-1.23" transform="translate(-346.02 -208.04)"></path>
  <path class="cls-1" d="M432.33,323.89a14.9,14.9,0,0,1-2.83-.18c-.82-.17.09-.3-.36-.25.09-.65-.64-1.8,0-2.4.54-.43,2.18-.25,3-.3,4.2-.17,2.5-.21,6.7-.26s4.49-.21,8.77-.08c1.74.08,2,.13,2.41.34a5.77,5.77,0,0,1,.37,2.82c-1.46.35-15.69.39-18.06.31" transform="translate(-346.02 -208.04)"></path>
  <path class="cls-1" d="M467,324c-.18.29-.77.07-1.11.14s-.82.26-1.26.19c-.4-.37-.29-3.67-.39-4.89s-.46-5.57-.61-6.7a8.18,8.18,0,0,0-.93-2.57,11.05,11.05,0,0,1-1.44-2.8,6.25,6.25,0,0,0-.34-.87,7.76,7.76,0,0,1-.6-1.45,11.94,11.94,0,0,1-.68-1.44c-.13-.66,2.52-2.82,2.94-2.18a34.61,34.61,0,0,0,1.9,4.64,113.47,113.47,0,0,0,3.32-11.72c.32-.54,1-.37,1.49-.34a5.17,5.17,0,0,1,1.76.07c.49.17-.65,3.34-.77,3.91-.38,1.49-3.5,13.35-3.55,14.39,0,.38.59,11.18.27,11.62" transform="translate(-346.02 -208.04)"></path>
  <path class="cls-1" d="M397.2,307c.05-.09,0-.09-.05-.19H397V307Zm10.53-13.67c.54-.1,1.17-.38,1.61-.05,0,5.11.72,27.73.24,30.38-.73.23-3.69.56-3.64-.67.05-2.08.05-4.16-.05-6.24,0-1,0-10.51-.15-10.93-.09.19-2.18,8.14-2.76,8.89-.78,1.09-1.66.38-2.72.52-.44-.71-2.63-6.95-2.77-7.28s-.05-.76-.39-.9c0,0,0,10.46-.2,12s.1,3.12-.34,4.68a5.4,5.4,0,0,1-3.49-.38c-.1-4.16.05-8.32,0-12.49-.05-2.13,0-17.22.58-17.74.58-.05,1.51-.52,2.14-.28.44.19.63.94.77,1.37.59,1.42,4.28,12.68,4.72,13.29a11.91,11.91,0,0,0,.58-1.51c.14-.19,4-11.78,4.42-12.49a7.13,7.13,0,0,1,1.45-.14" transform="translate(-346.02 -208.04)"></path>
  <path class="cls-1" d="M425.94,246.29a9.58,9.58,0,0,0,1.93,0c.59-.06.46-.7.46-1.15,0-1.08.06-2.17.06-3.25,0-.7,0-1.4,0-2.1,0-.45,0-1.56,0-2s.27-.08.67-.14,1.42-.09,1.72.23.06,1.21,0,1.63c-.19,3.18,0,6.31,0,9.47,0,1.18.07,2.36.1,3.51a10.3,10.3,0,0,0,0,1.14c0,.23.16.7,0,.9s-.69.09-.95.09a5.23,5.23,0,0,1-1.25,0,9.12,9.12,0,0,1-.42-3.12c-.07-1-.2-2.11-.17-3.19a6.88,6.88,0,0,0-2.22-.06c0,.92,0,1.88,0,2.83l.06,1.56a4.88,4.88,0,0,1,.14,2,7.08,7.08,0,0,1-2.33,0c-.26-.19-.2-1-.23-1.31,0-.83,0-1.69,0-2.49,0-1,.06-1.88.06-2.83,0-1.6,0-1.83,0-3.39,0-.67,0-.61,0-1.29,0-1.07.23-.83,0-1.92.46-.44,1.73-.28,2.32-.09a15,15,0,0,1,.07,2.2c0,1.64,0,1.13,0,2.77" transform="translate(-346.02 -208.04)"></path>
  <path class="cls-1" d="M433.94,254.7a3.2,3.2,0,0,1-1-.11c-.3-.12,0-.2-.13-.17,0-.42-.23-1.18,0-1.57s.78-.17,1.08-.19a21.34,21.34,0,0,1,2.4-.17,30.11,30.11,0,0,1,3.15-.06c.62.06.7.09.86.23a6.34,6.34,0,0,1,.13,1.84,48.29,48.29,0,0,1-6.48.2" transform="translate(-346.02 -208.04)"></path>
  <path class="cls-1" d="M434.81,242.48a9.56,9.56,0,0,0,1.35.09,11.33,11.33,0,0,0,2-.17c0-.12,0-.26,0-.38a3.37,3.37,0,0,0-.15-1c-.17-.77-.53-1.72-1.3-1.72-1.59,0-1.83,2.07-1.94,3.13m5.54,5.15c0,2.18-2.09,3.54-4,3.54-3.51,0-3.81-5-3.81-7.54s1-6.35,4.28-6.35c2.72,0,2.92,2.41,3.07,4.05a17.91,17.91,0,0,1,.15,2.19v.72c0,.2-.83.23-1.42.23H438c-.88,0-1.8.26-2.65.26h-.24c-.18,0-.32,0-.32.14,0,.46-.3,4.11,1.68,4.11,1.5,0,1.53-1.44,1.74-2.36h.27c.59,0,1.91.46,1.91,1" transform="translate(-346.02 -208.04)"></path>
  <path class="cls-1" d="M418.39,248c-.15-2.66,0-5.18-.42-7.89a4.52,4.52,0,0,0-1.62-.15c-.39-.22-.19-.63-.19-1s-.27-.9,0-1.35c.58,0,1-.08,1.62-.08l.11-1.3c.58-.38,1.93-.19,2.81-.19,0,0,.2,0,.23,1.45.93.19,4,0,5,.27.11.48.46,1.54-.08,1.91a2.68,2.68,0,0,1-1.23.11,30.26,30.26,0,0,0-3.69.08c-.16,2.21,0,4.36,0,6.61a21.58,21.58,0,0,0,.15,3.23" transform="translate(-346.02 -208.04)"></path>
  <path class="cls-1" d="M420.78,239.35c-.13,1.54.26,4.53.21,6.1s.1,3.06.14,4.59.05,2.86.26,4.54a20.14,20.14,0,0,1-2.69,0,19,19,0,0,1-.19-3.38,31.53,31.53,0,0,1-.1-4.76,32.51,32.51,0,0,0-.15-4.94c-.13-.89-.26-1.81-.38-2.66" transform="translate(-346.02 -208.04)"></path>
  <path class="cls-2" d="M369.08,379.29v2.35h.69c.4,0,.62-.18.62-.75v-.67c0-.71-.23-.93-.78-.93Zm0-3.12v2h.47c.45,0,.72-.2.72-.81V377c0-.55-.19-.79-.61-.79Zm2.39.67v.27a1.53,1.53,0,0,1-.77,1.55,1.55,1.55,0,0,1,.89,1.64v.62a1.63,1.63,0,0,1-1.82,1.82h-1.9v-7.66h1.82c1.25,0,1.78.58,1.78,1.76" transform="translate(-346.02 -208.04)"></path>
  <polygon class="cls-2" points="29.14 170.26 30.79 170.26 30.79 171.36 29.14 171.36 29.14 173.6 31.21 173.6 31.21 174.69 27.93 174.69 27.93 167.03 31.21 167.03 31.21 168.13 29.14 168.13 29.14 170.26"></polygon>
  <path class="cls-2" d="M384.58,375c1.17,0,1.77.7,1.77,1.93v.24h-1.14v-.32c0-.55-.22-.76-.6-.76s-.6.21-.6.76c0,1.58,2.35,1.87,2.35,4.06,0,1.22-.61,1.92-1.79,1.92a1.68,1.68,0,0,1-1.8-1.92v-.47h1.14V381c0,.54.24.74.62.74s.63-.2.63-.74c0-1.58-2.35-1.88-2.35-4.06,0-1.23.6-1.93,1.77-1.93" transform="translate(-346.02 -208.04)"></path>
  <polygon class="cls-2" points="45.22 172.47 46.04 167.03 47.71 167.03 47.71 174.69 46.57 174.69 46.57 169.2 45.74 174.69 44.6 174.69 43.71 169.28 43.71 174.69 42.66 174.69 42.66 167.03 44.33 167.03 45.22 172.47"></polygon>
  <path class="cls-2" d="M397.4,380.31h1.16l-.58-3.87Zm2.74,2.43h-1.21l-.21-1.39h-1.48l-.2,1.39h-1.11l1.23-7.66h1.76Z" transform="translate(-346.02 -208.04)"></path>
  <path class="cls-2" d="M403.54,376.17v2.35H404c.45,0,.73-.19.73-.8V377c0-.55-.19-.79-.62-.79Zm1.32,6.57a2.29,2.29,0,0,1-.11-.94v-1.21c0-.71-.24-1-.79-1h-.42v3.12h-1.2v-7.66h1.82c1.24,0,1.78.58,1.78,1.76v.6a1.54,1.54,0,0,1-.79,1.56c.6.25.8.83.8,1.63v1.18a2.28,2.28,0,0,0,.13.93Z" transform="translate(-346.02 -208.04)"></path>
  <polygon class="cls-2" points="62.01 167.03 65.73 167.03 65.73 168.13 64.47 168.13 64.47 174.69 63.26 174.69 63.26 168.13 62.01 168.13 62.01 167.03"></polygon>
  <polygon class="cls-2" points="69.09 170.26 70.75 170.26 70.75 171.36 69.09 171.36 69.09 173.6 71.17 173.6 71.17 174.69 67.89 174.69 67.89 167.03 71.17 167.03 71.17 168.13 69.09 168.13 69.09 170.26"></polygon>
  <path class="cls-2" d="M420.78,376.17v2.35h.47c.45,0,.72-.19.72-.8V377c0-.55-.18-.79-.61-.79Zm1.31,6.57a2.58,2.58,0,0,1-.1-.94v-1.21c0-.71-.25-1-.79-1h-.42v3.12h-1.2v-7.66h1.81c1.25,0,1.79.58,1.79,1.76v.6a1.54,1.54,0,0,1-.79,1.56c.6.25.8.83.8,1.63v1.18a2.28,2.28,0,0,0,.13.93Z" transform="translate(-346.02 -208.04)"></path>
  <polygon class="cls-2" points="82.58 167.03 86.3 167.03 86.3 168.13 85.04 168.13 85.04 174.69 83.84 174.69 83.84 168.13 82.58 168.13 82.58 167.03"></polygon>
  <path class="cls-2" d="M435.59,381c0,.54.24.75.62.75s.63-.21.63-.75v-4.14c0-.55-.24-.76-.63-.76s-.62.21-.62.76Zm-1.2-4.06a1.83,1.83,0,1,1,3.65,0v4a1.83,1.83,0,1,1-3.65,0Z" transform="translate(-346.02 -208.04)"></path>
  <path class="cls-2" d="M442.26,378.47H444v2.43c0,1.22-.61,1.92-1.79,1.92a1.67,1.67,0,0,1-1.8-1.92v-4c0-1.23.61-1.93,1.8-1.93s1.79.7,1.79,1.93v.74h-1.14v-.82c0-.55-.24-.76-.62-.76s-.63.21-.63.76V381c0,.54.24.74.63.74s.62-.2.62-.74v-1.42h-.55Z" transform="translate(-346.02 -208.04)"></path>
  <polygon class="cls-2" points="101.55 170.26 103.2 170.26 103.2 171.36 101.55 171.36 101.55 173.6 103.63 173.6 103.63 174.69 100.34 174.69 100.34 167.03 103.63 167.03 103.63 168.13 101.55 168.13 101.55 170.26"></polygon>
  <polygon class="cls-2" points="105.66 167.03 109.38 167.03 109.38 168.13 108.12 168.13 108.12 174.69 106.92 174.69 106.92 168.13 105.66 168.13 105.66 167.03"></polygon>
  <polygon class="cls-2" points="112.75 174.69 111.54 174.69 111.54 167.03 112.75 167.03 112.75 170.32 114.11 170.32 114.11 167.03 115.34 167.03 115.34 174.69 114.11 174.69 114.11 171.41 112.75 171.41 112.75 174.69"></polygon>
  <polygon class="cls-2" points="119.06 170.26 120.71 170.26 120.71 171.36 119.06 171.36 119.06 173.6 121.14 173.6 121.14 174.69 117.86 174.69 117.86 167.03 121.14 167.03 121.14 168.13 119.06 168.13 119.06 170.26"></polygon>
  <path class="cls-2" d="M470.75,376.17v2.35h.47c.45,0,.72-.19.72-.8V377c0-.55-.19-.79-.61-.79Zm1.31,6.57a2.29,2.29,0,0,1-.11-.94v-1.21c0-.71-.24-1-.79-1h-.41v3.12h-1.21v-7.66h1.82c1.25,0,1.78.58,1.78,1.76v.6a1.54,1.54,0,0,1-.79,1.56c.61.25.8.83.8,1.63v1.18a2.12,2.12,0,0,0,.14.93Z" transform="translate(-346.02 -208.04)"></path>
</svg>
